<?xml version="1.0" encoding="UTF-8"?>
<svg height="128px" viewBox="0 0 128 128" width="128px" xmlns="http://www.w3.org/2000/svg" xmlns:xlink="http://www.w3.org/1999/xlink">
    <linearGradient id="a" gradientUnits="userSpaceOnUse" x1="12.000257" x2="116.000257" y1="63.999762" y2="63.999762">
        <stop offset="0" stop-color="#135034"/>
        <stop offset="0.05" stop-color="#2ec27e"/>
        <stop offset="0.1" stop-color="#0f3f29"/>
        <stop offset="0.899999" stop-color="#1a6e47"/>
        <stop offset="0.95" stop-color="#26a269"/>
        <stop offset="1" stop-color="#0e3a25"/>
    </linearGradient>
    <linearGradient id="b" gradientUnits="userSpaceOnUse" x1="87.237755" x2="87.237755" y1="109.851202" y2="49.758856">
        <stop offset="0" stop-color="#208156"/>
        <stop offset="1" stop-color="#2cb56e"/>
    </linearGradient>
    <linearGradient id="c" gradientUnits="userSpaceOnUse">
        <stop offset="0" stop-color="#28ae6f"/>
        <stop offset="1" stop-color="#33d88b"/>
    </linearGradient>
    <linearGradient id="d" x1="31.24707" x2="26.991211" xlink:href="#c" y1="20.33841" y2="9.320832"/>
    <linearGradient id="e" gradientUnits="userSpaceOnUse">
        <stop offset="0" stop-color="#33d17a"/>
        <stop offset="1" stop-color="#8ff0a4"/>
    </linearGradient>
    <linearGradient id="f" x1="20.184569" x2="12.530271" xlink:href="#e" y1="23.971218" y2="15.347195"/>
    <linearGradient id="g" gradientTransform="matrix(-0.997676 0.0681342 -0.0681342 -0.997676 97.404078 276.48786)" gradientUnits="userSpaceOnUse" x1="23.821821" x2="12.317045" y1="199.182373" y2="192.746902">
        <stop offset="0" stop-color="#28a467"/>
        <stop offset="1" stop-color="#33d88b"/>
    </linearGradient>
    <linearGradient id="h" gradientUnits="userSpaceOnUse">
        <stop offset="0" stop-color="#238d5d"/>
        <stop offset="1" stop-color="#33d17a"/>
    </linearGradient>
    <linearGradient id="i" gradientTransform="matrix(-0.00857269 -0.999963 -0.999963 0.00857269 251.61845 88.388489)" x1="39.963024" x2="44.849743" xlink:href="#h" y1="194.512848" y2="184.139801"/>
    <linearGradient id="j" gradientTransform="matrix(0.628702 0.00917735 -0.00917735 0.628702 13.13118 -38.861404)" x1="19.625929" x2="11.971631" xlink:href="#e" y1="200.077133" y2="191.45311"/>
    <linearGradient id="k" gradientTransform="matrix(0.353968 0.533183 -0.533183 0.353968 140.043976 -31.988022)" x1="19.625929" x2="11.971631" xlink:href="#e" y1="200.077133" y2="191.45311"/>
    <linearGradient id="l" gradientTransform="matrix(-0.0605604 0.692839 -0.692839 -0.0605604 184.784155 43.200272)" x1="19.625929" x2="11.971631" xlink:href="#e" y1="200.077133" y2="191.45311"/>
    <linearGradient id="m" gradientTransform="matrix(0.695228 0.383372 -0.383372 0.695228 165.314018 -125.969444)" x1="19.625929" x2="11.971631" xlink:href="#e" y1="200.077133" y2="191.45311"/>
    <linearGradient id="n" gradientTransform="matrix(-0.0528683 0.955347 -0.955347 -0.0528683 237.191032 26.185226)" x1="19.625929" x2="11.971631" xlink:href="#e" y1="200.077133" y2="191.45311"/>
    <linearGradient id="o" gradientTransform="matrix(-0.315426 0.830165 -0.830165 -0.315426 280.372231 67.117783)" x1="19.625929" x2="11.971631" xlink:href="#e" y1="200.077133" y2="191.45311"/>
    <linearGradient id="p" gradientTransform="matrix(-0.551794 0.72797 -0.72797 -0.551794 252.52417 158.10733)" x1="19.625929" x2="11.971631" xlink:href="#e" y1="200.077133" y2="191.45311"/>
    <linearGradient id="q" gradientTransform="matrix(-0.351153 0.780316 -0.780316 -0.351153 236.410904 122.836578)" x1="31.24707" x2="26.991211" xlink:href="#c" y1="194.725586" y2="183.708008"/>
    <linearGradient id="r" gradientTransform="matrix(0.13862 0.612862 -0.612862 0.13862 192.11687 27.478317)" x1="31.24707" x2="26.991211" xlink:href="#c" y1="194.725586" y2="183.708008"/>
    <linearGradient id="s" gradientTransform="matrix(-0.197041 0.915637 -0.915637 -0.197041 269.738678 82.87587)" x1="31.24707" x2="26.991211" xlink:href="#c" y1="194.725586" y2="183.708008"/>
    <linearGradient id="t" gradientTransform="matrix(-0.11121 0.756893 -0.756893 -0.11121 233.14328 62.883057)" x1="31.24707" x2="26.991211" xlink:href="#c" y1="194.725586" y2="183.708008"/>
    <linearGradient id="u" gradientTransform="matrix(0.804501 -0.36056 0.36056 0.804501 -65.361572 -113.22369)" x1="31.24707" x2="26.991211" xlink:href="#c" y1="194.725586" y2="183.708008"/>
    <linearGradient id="v" gradientTransform="matrix(-0.540313 -0.417928 0.417928 -0.540313 -19.252014 213.932312)" x1="31.24707" x2="26.991211" xlink:href="#c" y1="194.725586" y2="183.708008"/>
    <linearGradient id="w" gradientTransform="matrix(0.046579 -0.731812 0.731812 0.046579 -116.614563 65.000305)" x1="39.963024" x2="44.849743" xlink:href="#h" y1="194.512848" y2="184.139801"/>
    <linearGradient id="x" gradientTransform="matrix(0.849379 -0.379774 0.379774 0.849379 -66.983215 -114.69709)" x1="39.963024" x2="44.849743" xlink:href="#h" y1="194.512848" y2="184.139801"/>
    <linearGradient id="y" gradientTransform="matrix(0.65336 0.162303 -0.162303 0.65336 66.937851 -105.043114)" x1="39.963024" x2="44.849743" xlink:href="#h" y1="194.512848" y2="184.139801"/>
    <linearGradient id="z" gradientTransform="matrix(-0.66388 -0.479776 -0.479776 0.66388 150.777859 -66.032433)" x1="39.963024" x2="44.849743" xlink:href="#h" y1="194.512848" y2="184.139801"/>
    <linearGradient id="A" gradientTransform="matrix(0.74502 -0.0895384 0.0895384 0.74502 29.782883 -74.74408)" x1="39.963024" x2="44.849743" xlink:href="#h" y1="194.512848" y2="184.139801"/>
    <linearGradient id="B" gradientTransform="matrix(-0.0964518 0.692155 -0.692155 -0.0964518 215.428668 83.774841)" x1="39.963024" x2="44.849743" xlink:href="#h" y1="194.512848" y2="184.139801"/>
    <linearGradient id="C" gradientTransform="matrix(-0.298231 -0.604511 0.604511 -0.298231 -88.64621 167.19458)" x1="39.963024" x2="44.849743" xlink:href="#h" y1="194.512848" y2="184.139801"/>
    <linearGradient id="D" gradientTransform="matrix(-0.509469 -0.486336 0.486336 -0.509469 -50.708099 178.660553)" x1="39.963024" x2="44.849743" xlink:href="#h" y1="194.512848" y2="184.139801"/>
    <linearGradient id="E" gradientTransform="matrix(0.539495 0.490796 -0.490796 0.539495 143.842171 -97.471573)" x1="39.963024" x2="44.849743" xlink:href="#h" y1="194.512848" y2="184.139801"/>
    <linearGradient id="F" gradientTransform="matrix(0.63134 -0.149493 0.149493 0.63134 55.625504 -101.667747)" x1="39.963024" x2="44.849743" xlink:href="#h" y1="194.512848" y2="184.139801"/>
    <linearGradient id="G" gradientTransform="matrix(0.888644 0.409424 -0.409424 0.888644 90.710373 -168.521996)" x1="39.963024" x2="44.849743" xlink:href="#h" y1="194.512848" y2="184.139801"/>
    <linearGradient id="H" gradientTransform="matrix(0.668151 0.543364 -0.543364 0.668151 157.181358 -132.289001)" x1="39.963024" x2="44.849743" xlink:href="#h" y1="194.512848" y2="184.139801"/>
    <linearGradient id="I" gradientTransform="matrix(0.683121 0.0427741 -0.0427741 0.683121 43.78035 -115.468719)" x1="39.963024" x2="44.849743" xlink:href="#h" y1="194.512848" y2="184.139801"/>
    <linearGradient id="J" gradientTransform="matrix(-0.106012 0.592837 -0.592837 -0.106012 198.025282 82.930603)" x1="39.963024" x2="44.849743" xlink:href="#h" y1="194.512848" y2="184.139801"/>
    <linearGradient id="K" gradientTransform="matrix(-0.147988 0.58906 -0.58906 -0.147988 183.977163 102.631866)" x1="39.963024" x2="44.849743" xlink:href="#h" y1="194.512848" y2="184.139801"/>
    <linearGradient id="L" gradientTransform="matrix(-0.358175 0.517694 -0.517694 -0.358175 164.515408 151.836639)" x1="42.581951" x2="35.336994" xlink:href="#h" y1="184.847076" y2="195.860062"/>
    <linearGradient id="M" gradientTransform="matrix(0.555802 0.509544 -0.509544 0.555802 179.09099 -45.857338)" x1="39.963024" x2="44.849743" xlink:href="#h" y1="194.512848" y2="184.139801"/>
    <linearGradient id="N" gradientTransform="matrix(-0.17155 1.028755 -1.028755 -0.17155 296.024109 87.241119)" x1="39.963024" x2="44.849743" xlink:href="#h" y1="194.512848" y2="184.139801"/>
    <linearGradient id="O" gradientTransform="matrix(0.0641407 1.076083 -1.076083 0.0641407 305.941582 34.106659)" x1="39.963024" x2="44.849743" xlink:href="#h" y1="194.512848" y2="184.139801"/>
    <linearGradient id="P" gradientTransform="matrix(0.103158 0.672179 -0.672179 0.103158 213.092838 39.814636)" x1="39.963024" x2="44.849743" xlink:href="#h" y1="194.512848" y2="184.139801"/>
    <linearGradient id="Q" gradientTransform="matrix(-0.0332829 0.762181 -0.762181 -0.0332829 213.754174 67.187515)" x1="39.963024" x2="44.849743" xlink:href="#h" y1="194.512848" y2="184.139801"/>
    <linearGradient id="R" gradientTransform="matrix(0.90137 0.767108 -0.767108 0.90137 218.193529 -130.798187)" x1="39.963024" x2="44.849743" xlink:href="#h" y1="194.512848" y2="184.139801"/>
    <linearGradient id="S" gradientTransform="matrix(-0.590055 0.358053 -0.358053 -0.590055 129.454956 203.480621)" x1="39.963024" x2="44.849743" xlink:href="#h" y1="194.512848" y2="184.139801"/>
    <linearGradient id="T" gradientTransform="matrix(-0.457581 1.006495 -1.006495 -0.457581 263.851006 141.680389)" x1="42.581951" x2="34.161064" xlink:href="#h" y1="184.847076" y2="192.032578"/>
    <linearGradient id="U" gradientTransform="matrix(-1.013344 -0.343968 0.343968 -1.013344 -4.280121 310.274811)" x1="39.963024" x2="44.849743" xlink:href="#h" y1="194.512848" y2="184.139801"/>
    <linearGradient id="V" gradientTransform="matrix(0.577471 0.429861 -0.429861 0.577471 152.542046 -46.910622)" x1="39.963024" x2="44.849743" xlink:href="#h" y1="194.512848" y2="184.139801"/>
    <linearGradient id="W" gradientTransform="matrix(-0.518793 0.552374 -0.552374 -0.518793 183.959574 163.079376)" x1="39.963024" x2="44.849743" xlink:href="#h" y1="194.512848" y2="184.139801"/>
    <linearGradient id="X" gradientTransform="matrix(0.37436 0.311061 -0.311061 0.37436 139.786922 -25.489685)" x1="39.963024" x2="44.849743" xlink:href="#h" y1="194.512848" y2="184.139801"/>
    <linearGradient id="Y" gradientTransform="matrix(0.399801 1.301514 -1.301514 0.399801 313.497719 -23.934891)" x1="39.963024" x2="44.849743" xlink:href="#h" y1="194.512848" y2="184.139801"/>
    <linearGradient id="Z" gradientTransform="matrix(-0.317977 1.258666 -1.258666 -0.317977 321.258392 120.530548)" x1="39.963024" x2="44.849743" xlink:href="#h" y1="194.512848" y2="184.139801"/>
    <linearGradient id="aa" gradientTransform="matrix(0.682679 0.498281 -0.498281 0.682679 134.821198 -76.991608)" x1="39.963024" x2="44.849743" xlink:href="#h" y1="194.512848" y2="184.139801"/>
    <linearGradient id="ab" gradientTransform="matrix(0.0641407 1.076083 -1.076083 0.0641407 311.463547 46.784348)" x1="39.958542" x2="42.219227" xlink:href="#h" y1="195.744003" y2="190.93248"/>
    <path d="m 20 22 h 88 c 4.417969 0 8 3.582031 8 8 v 78 c 0 4.417969 -3.582031 8 -8 8 h -88 c -4.417969 0 -8 -3.582031 -8 -8 v -78 c 0 -4.417969 3.582031 -8 8 -8 z m 0 0" fill="url(#a)"/>
    <path d="m 20 12 h 88 c 4.417969 0 8 3.730469 8 8.332031 v 75.375 c 0 4.605469 -3.582031 8.335938 -8 8.335938 h -88 c -4.417969 0 -8 -3.730469 -8 -8.335938 v -75.375 c 0 -4.601562 3.582031 -8.332031 8 -8.332031 z m 0 0" fill="#8ff0a4"/>
    <path d="m 20 14 h 88 c 4.417969 0 8 3.582031 8 8 v 80 c 0 4.417969 -3.582031 8 -8 8 h -88 c -4.417969 0 -8 -3.582031 -8 -8 v -80 c 0 -4.417969 3.582031 -8 8 -8 z m 0 0" fill="url(#b)"/>
    <path d="m 31.851562 98.875 l 22.039063 -21 l -22.039063 -21" fill="none" stroke="#1b734b" stroke-linecap="round" stroke-width="8"/>
    <path d="m 31.851562 95.265625 l 22.039063 -21 l -22.039063 -21" fill="none" stroke="#ffffff" stroke-linecap="round" stroke-width="8"/>
    <path d="m 24.078125 6.753906 c -0.226563 5.5625 -0.871094 16.679688 7.703125 16.023438 c 0.003906 0.003906 0.003906 0.007812 0.007812 0.011718 l 0.347657 0.011719 l 0.117187 -0.339843 c -0.007812 -0.007813 -0.015625 -0.011719 -0.019531 -0.019532 c 2.773437 -5.65625 -1.128906 -10.792968 -8.15625 -15.6875 z m 87.085937 0.273438 c -4.085937 3.765625 -6.140624 7.414062 -3.859374 10.804687 c -0.003907 0.003907 -0.007813 0.007813 -0.011719 0.011719 l 0.105469 0.210938 l 0.222656 -0.039063 c 0.003906 0 0.003906 -0.003906 0.007812 -0.007813 c 5.566406 -0.335937 4.171875 -7.425781 3.535156 -10.980468 z m -12.929687 3.777344 c 0.132813 4.417968 0.25 13.257812 7 12.257812 c 0.003906 0.003906 0.007813 0.003906 0.011719 0.007812 l 0.273437 -0.011718 l 0.074219 -0.277344 c -0.007812 -0.003906 -0.011719 -0.007812 -0.019531 -0.011719 c 1.882812 -4.636719 -1.5 -8.484375 -7.339844 -11.964843 z m -31.390625 0.445312 c -5.277344 2.546875 -8.472656 5.597656 -7.207031 9.71875 c -0.007813 0.003906 -0.011719 0.007812 -0.015625 0.011719 l 0.042968 0.242187 l 0.234376 0.03125 c 0.003906 0 0.003906 -0.003906 0.007812 -0.003906 c 5.722656 1.371094 6.492188 -6.21875 6.9375 -10 z m -10.191406 0.640625 c -8.351563 0.671875 -14.183594 3.09375 -14.625 9.242187 c -0.007813 0.003907 -0.019532 0.003907 -0.027344 0.003907 l -0.066406 0.34375 l 0.296875 0.164062 c 0.003906 0 0.007812 -0.003906 0.015625 -0.003906 c 6.921875 4.777344 11.859375 -4.9375 14.40625 -9.75 z m 27.132812 1.824219 c -4.648437 -0.046875 -8.03125 1.367187 -9.316406 5.203125 c -0.007812 0 -0.015625 0 -0.019531 0 l -0.136719 0.277343 l 0.21875 0.203126 h 0.011719 c 4.859375 5.589843 11.191406 -1.613282 14.417969 -5.160157 c -1.851563 -0.320312 -3.585938 -0.507812 -5.175782 -0.523437 z m 35.90625 1.460937 c -4.871094 0.839844 -14.644531 2.359375 -12.472656 9.679688 c -0.003906 0.003906 -0.007812 0.007812 -0.007812 0.011719 l 0.054687 0.300781 l 0.316406 0.039062 c 0.003907 -0.007812 0.007813 -0.011719 0.011719 -0.019531 c 5.429688 1.351562 9.160156 -2.996094 12.097656 -10.011719 z m -110.636718 0.308594 c 2.191406 3.703125 5.980468 10.332031 10.746093 10.738281 c 1.996094 4.738282 5.371094 11.078125 11.097657 7.96875 c 0.003906 0 0.007812 0 0.011718 0.003906 l 0.285156 -0.117187 l -0.03125 -0.316406 c -0.007812 0 -0.015624 -0.003907 -0.019531 -0.003907 c 0.148438 -4.308593 -2.816406 -6.914062 -7.617187 -8.519531 c 0.234375 -0.148437 0.46875 -0.3125 0.707031 -0.496093 c 0.003906 0.003906 0.007813 0.003906 0.015625 0.003906 l 0.296875 -0.179688 l -0.085937 -0.347656 c -0.011719 0 -0.019532 -0.003906 -0.027344 -0.003906 c -0.75 -6.257813 -6.820313 -8.445313 -15.378906 -8.730469 z m 57.972656 6.179687 c -5.558594 1.53125 -9.1875 3.917969 -8.695313 8.128907 c -0.003906 0.003906 -0.011719 0.003906 -0.015625 0.007812 l -0.003906 0.242188 l 0.222656 0.070312 c 0.003906 0 0.007813 0 0.011719 -0.003906 c 5.292969 2.335937 7.378906 -4.863281 8.480469 -8.445313 z m 6.988281 1.015626 c -3.433594 -0.027344 -5.980469 1.089843 -7.136719 4 c -0.007812 0 -0.015625 0 -0.019531 0 l -0.128906 0.230468 l 0.175781 0.179688 h 0.011719 c 3.84375 4.953125 9.535156 -0.839844 12.429687 -3.6875 c -1.9375 -0.445313 -3.730468 -0.707032 -5.332031 -0.722656 z m -33.96875 0.429687 c -4.746094 6.398437 -6.667969 12.085937 -2.542969 16.253906 c -0.003906 0.007813 -0.007812 0.011719 -0.011718 0.019531 l 0.203124 0.265626 l 0.304688 -0.113282 c 0.003906 -0.003906 0.003906 -0.007812 0.007812 -0.011718 c 7.753907 -1.964844 3.890626 -11.578126 2.039063 -16.414063 z m 14.832031 2.191406 c -4.726562 2.453125 -14.265625 7.203125 -9.648437 14.011719 c 0 0.003906 -0.003907 0.007812 -0.003907 0.011719 l 0.15625 0.292969 l 0.339844 -0.0625 c 0 -0.007813 0 -0.019532 0.003906 -0.027344 c 6.015626 -0.382813 8.429688 -6.0625 9.152344 -14.226563 z m -44.246094 4.746094 c 2.832032 4.789063 8.339844 14.46875 15.179688 9.257813 c 0.003906 0 0.007812 0.003906 0.011719 0.003906 l 0.296875 -0.183594 l -0.085938 -0.347656 c -0.007812 0 -0.015625 0 -0.027344 -0.003906 c -0.746093 -6.253907 -6.816406 -8.445313 -15.375 -8.726563 z m 23.515626 3.648437 c -2.464844 3.839844 -7.519532 11.433594 -1.1875 14.515626 c 0 0.003906 0 0.007812 0.003906 0.011718 l 0.238281 0.152344 l 0.226563 -0.191406 c -0.003907 -0.007813 -0.007813 -0.015625 -0.007813 -0.023438 c 4.300781 -2.847656 3.667969 -8.097656 0.726563 -14.464844 z m 18.253906 4.945313 c -3.492188 1.671875 -10.53125 4.902344 -7.335938 9.957031 v 0.007813 l 0.105469 0.214843 l 0.246094 -0.035156 c 0 -0.007812 0.003906 -0.011718 0.003906 -0.019531 c 4.378906 -0.136719 6.265625 -4.210937 6.980469 -10.125 z m -10.84375 2.414063 c -1.554688 3.207031 -4.765625 9.570312 0.4375 11.371093 v 0.007813 l 0.203125 0.09375 l 0.15625 -0.167969 c -0.003907 -0.003906 -0.007813 -0.011719 -0.007813 -0.015625 c 3.070313 -2.613281 2.085938 -6.625 -0.789062 -11.289062 z m -23.53125 0.597656 c 2.722656 5.660156 5.984375 9.082031 10.402344 7.734375 c 0.003906 0.007812 0.007812 0.011719 0.011718 0.019531 l 0.261719 -0.046875 l 0.03125 -0.253906 s -0.003906 -0.003907 -0.003906 -0.007813 c 1.472656 -6.128906 -6.652344 -6.960937 -10.703125 -7.445312 z m 37 4.449218 c -2.589844 1.585938 -7.824219 4.675782 -4.917969 8.359376 c 0 0.003906 -0.003906 0.003906 -0.003906 0.007812 l 0.101562 0.160156 l 0.191407 -0.050781 c 0 -0.003906 0 -0.007813 0 -0.015625 c 3.40625 -0.460938 4.546874 -3.789062 4.628906 -8.460938 z m 15.277344 0 c -5.554688 0.355469 -16.675782 0.875 -15.128907 9.332032 c -0.003906 0.003906 -0.007812 0.007812 -0.011719 0.011718 l 0.027344 0.347657 l 0.351563 0.078125 c 0.003906 -0.007813 0.007812 -0.011719 0.011719 -0.019532 c 5.917968 2.167969 10.617187 -2.25 14.75 -9.75 z m -60.269532 1.9375 c 2.835938 4.792969 8.339844 14.46875 15.179688 9.257813 c 0.003906 0.003906 0.007812 0.003906 0.011718 0.003906 l 0.300782 -0.179687 l -0.089844 -0.347656 c -0.007812 0 -0.015625 -0.003907 -0.023438 -0.003907 c -0.75 -6.257812 -6.820312 -8.445312 -15.378906 -8.730469 z m 60.554688 8.367188 c -5.5625 0.148438 -16.699219 0.257812 -15.46875 8.765625 c -0.003906 0.003906 -0.007813 0.007813 -0.007813 0.011719 l 0.011719 0.347656 l 0.347656 0.09375 c 0.003906 -0.007812 0.011719 -0.015625 0.015625 -0.023438 c 5.832031 2.390626 10.691407 -1.851562 15.101563 -9.195312 z m 26.554687 0.671875 c -2.457031 0.015625 -4.246093 0.820313 -4.960937 2.886719 c -0.003906 0 -0.007813 0 -0.011719 0 l -0.078125 0.15625 l 0.121094 0.117187 h 0.007812 c 2.710938 3.1875 6.332032 -0.847656 8.175782 -2.832031 c -1.171876 -0.214844 -2.265626 -0.332031 -3.253907 -0.328125 z m -17.5625 0.148437 c -5.1875 3.796876 -8.023437 7.71875 -5.839843 11.914063 c -0.007813 0.003906 -0.011719 0.007813 -0.015626 0.011719 l 0.09375 0.253906 l 0.257813 -0.015625 c 0.003906 0 0.003906 -0.003906 0.007813 -0.007813 c 6.441406 0.34375 5.765624 -7.988281 5.496093 -12.15625 z m 23.914063 2.597657 c -4.597656 -0.042969 -9.3125 1.035156 -9.296875 6.40625 c -0.003907 0.003906 -0.007813 0.003906 -0.007813 0.007812 l -0.035156 0.3125 l 0.304688 0.132813 c 0.003906 -0.007813 0.011718 -0.011719 0.015624 -0.019532 c 4.96875 2.910157 9.910157 -0.300781 14.839844 -6.375 c -1.597656 -0.183593 -3.695312 -0.445312 -5.820312 -0.464843 z m -80.433594 0.65625 c -3.109375 0.003906 -6.542969 3.316406 -8.578125 5.222656 c 5.84375 1.492187 10.378906 1.210937 12.117187 -2.875 c 0.007813 0.003906 0.015626 0 0.019532 0.003906 l 0.128906 -0.21875 l -0.167969 -0.179687 c -0.003906 0 -0.003906 0 -0.007812 0 c -1.039063 -1.410156 -2.25 -1.953125 -3.511719 -1.953125 z m 64.820312 0.882812 c -3.28125 0 -6.289062 0.988281 -6.558593 4.855469 c -0.003907 0 -0.003907 0.003906 -0.007813 0.003906 l -0.046875 0.261719 l 0.246094 0.128906 c 0.003906 -0.003906 0.007813 -0.007812 0.015625 -0.015625 c 3.972656 2.730469 8.292969 0.347656 12.78125 -4.425781 c -1.722656 -0.324219 -4.144531 -0.808594 -6.429688 -0.808594 z m 24.175782 5.753907 c -5.972656 -0.03125 -10.347656 1.871093 -12.148438 6.878906 c -0.011718 0 -0.023437 0 -0.03125 -0.003906 l -0.191406 0.378906 l 0.292969 0.289062 h 0.015625 c 6.503906 7.824219 15.425781 -1.878906 19.96875 -6.652344 c -2.851563 -0.554687 -5.507813 -0.878906 -7.90625 -0.890624 z m -26.851563 1.164062 c -3.441406 0.628906 -10.34375 1.773438 -8.753906 6.9375 c 0 0.003906 -0.003906 0.007812 -0.003906 0.007812 l 0.042969 0.214844 l 0.222656 0.027344 c 0.003906 -0.003906 0.003906 -0.011719 0.007812 -0.015625 c 3.851563 0.917969 6.460938 -2.1875 8.484375 -7.171875 z m 6 0.695312 c -3.5 0.023438 -6.550781 1.246094 -7.125 5.441407 c -0.003906 0.003906 -0.007812 0.003906 -0.011719 0.007812 l -0.078124 0.316407 l 0.289062 0.171874 c 0.007812 -0.003906 0.011719 -0.007812 0.019531 -0.015624 c 4.632813 3.660156 10.105469 1.097656 15.972657 -4.375 c -2.394532 -0.617188 -5.914063 -1.566407 -9.066407 -1.546876 z m -19.695312 0.894532 c -5.183594 -0.039063 -8.90625 1.445312 -10.058594 5.59375 c -0.007813 0 -0.015625 0 -0.023437 0 l -0.117188 0.28125 l 0.226562 0.191406 h 0.011719 c 5.046875 5.226562 10.886719 -2.160156 13.863281 -5.800781 c -1.371093 -0.164063 -2.675781 -0.257813 -3.902343 -0.265625 z m -61.796875 1.035156 c 2.832031 4.789062 8.339844 14.46875 15.175781 9.257812 c 0.003906 0 0.007813 0.003907 0.015625 0.003907 l 0.296875 -0.179688 l -0.085937 -0.351562 c -0.011719 0 -0.019532 0 -0.027344 -0.003907 c -0.746094 -6.253906 -6.816406 -8.445312 -15.375 -8.726562 z m 67.878906 5.234375 c -2.253906 0.015625 -4.199219 0.976563 -5.199219 3.738281 c -0.003906 0.003906 -0.003906 0.003906 -0.007812 0.003906 l -0.132813 0.269532 l 0.226563 0.210937 c 0.003906 -0.003906 0.011719 -0.007812 0.019531 -0.011719 c 3.441406 4.152344 8.816406 2.910157 15.105469 -0.855468 c -2.558594 -1.277344 -6.628907 -3.378906 -10.011719 -3.355469 z m 19.355469 1.695313 c -4.148438 0.027343 -7.125 1.300781 -8.097657 4.6875 c -0.003906 0 -0.011718 0 -0.015624 0 l -0.101563 0.238281 l 0.1875 0.164062 h 0.011719 c 4.257812 4.488281 9.289062 -1.753906 11.855468 -4.828125 c -1.363281 -0.175781 -2.648437 -0.269531 -3.839843 -0.261718 z m 9.476562 0.207031 c -3.550781 -0.042969 -6.1875 1.101562 -7.394531 4.109375 c -0.007812 0 -0.015625 0 -0.019531 -0.003906 l -0.132813 0.238281 l 0.183594 0.1875 h 0.007812 c 3.957032 5.140625 9.863282 -0.828125 12.867188 -3.761719 c -2 -0.46875 -3.855469 -0.75 -5.511719 -0.769531 z m -41.796875 0.167969 c -1.394531 -0.015626 -2.839844 0.503906 -4.296875 1.78125 c -0.003906 0 -0.007812 0 -0.011719 0 l -0.285156 0.199218 l 0.109375 0.339844 c 0.007813 0 0.015625 0.003906 0.027344 0.003906 c 1.171875 6.191406 7.375 7.960938 15.9375 7.660156 c -2.445313 -3.550781 -6.6875 -9.921874 -11.480469 -9.984374 z m -7.347656 3.78125 l -0.191406 0.179687 v 0.011719 c -5.210938 3.914062 0.714844 9.925781 3.625 12.976562 c 1.554687 -6.300781 1.207031 -11.175781 -3.199219 -13.011718 c 0 -0.003907 0 -0.011719 0.003906 -0.019532 z m -40.527344 0.101562 c 1.738282 3.035156 5.109375 9.171875 9.457032 5.960938 h 0.011718 l 0.1875 -0.109376 l -0.050781 -0.222656 c -0.007813 0 -0.011719 0 -0.015625 0 c -0.414062 -3.941406 -4.210938 -5.371094 -9.589844 -5.628906 z m 71.054688 2.070312 c -0.875 0.019532 -1.75 0.265626 -2.632813 0.761719 c -0.003906 -0.003906 -0.007812 -0.007812 -0.011719 -0.011719 l -0.226562 0.09375 l 0.019531 0.234376 c 0.003907 0 0.003907 0.003906 0.007813 0.007812 c -0.117188 5.84375 7.40625 4.984375 11.175781 4.617188 c -2.742187 -3.503907 -5.511719 -5.765626 -8.332031 -5.703126 z m -8.382813 0.011719 c -0.375 -0.011719 -0.765625 0.023438 -1.171875 0.097657 c -0.003906 -0.003907 -0.007812 -0.011719 -0.007812 -0.015626 l -0.21875 0.011719 l -0.050782 0.203125 c 0 0.003906 0.003907 0.007813 0.003907 0.007813 c -1.769531 4.867187 4.78125 6.296875 8.042969 7.070312 c -1.511719 -4.339843 -3.535157 -7.277343 -6.597657 -7.375 z m -64.375 0.808594 c -2.582031 -0.015625 -5.648437 1.335937 -7.609375 2.175781 c 4.761719 3.261719 8.933594 4.496094 11.835938 1.394532 c 0.003906 0.003906 0.011718 0.007812 0.015625 0.007812 l 0.1875 -0.15625 l -0.089844 -0.214844 c -0.003906 0 -0.007813 -0.003906 -0.007813 -0.003906 c -0.707031 -2.394531 -2.378906 -3.191406 -4.332031 -3.203125 z m 86.199219 0.039063 c -1.203125 0 -2.4375 0.269531 -3.707031 0.835937 c -0.003907 -0.007813 -0.011719 -0.015625 -0.019531 -0.023437 l -0.371094 0.113281 v 0.375 c 0 0.003906 0.003906 0.007812 0.007812 0.011719 c -1.042968 9.207031 10.960938 8.953124 16.960938 8.925781 c -3.972656 -6.175781 -8.191406 -10.230469 -12.871094 -10.238281 z m -35.996094 3.390624 c -0.601562 0.019532 -1.222656 0.136719 -1.867187 0.347657 c -0.003907 -0.007813 -0.007813 -0.011719 -0.011719 -0.019531 l -0.269531 0.054687 l -0.027344 0.261719 c 0 0.003906 0.003906 0.007812 0.007813 0.011718 c -1.40625 6.40625 7.058593 7.101563 11.285156 7.519532 c -2.535156 -5.007813 -5.449219 -8.296875 -9.117188 -8.175782 z m -15.015625 0.277344 l -0.183593 0.339844 c 0 0.003906 0.003906 0.007812 0.003906 0.011719 c -5.359375 7.851562 5.648437 13.375 11.101562 16.226562 c -0.808594 -9.433593 -3.574218 -16.007812 -10.527344 -16.472656 c 0 -0.011719 -0.003906 -0.019531 -0.003906 -0.03125 z m 27.660157 1.644532 c -0.4375 0.003906 -0.890626 0.058593 -1.355469 0.164062 c -0.003907 -0.003906 -0.007813 -0.011719 -0.007813 -0.015625 l -0.25 0.023437 l -0.050781 0.238282 c 0 0.003906 0.003906 0.007812 0.003906 0.007812 c -1.835937 5.722656 5.824219 7.089844 9.640625 7.839844 c -1.945312 -4.964844 -4.425781 -8.277344 -7.980468 -8.257812 z m -56.695313 0.441406 c -3.667969 -0.101563 -7.785156 2.222656 -12.152344 5.921875 c 5.316407 1.648437 15.898438 5.128906 17.46875 -3.328125 c 0.003907 0 0.007813 -0.003906 0.011719 -0.003906 l 0.097656 -0.332032 l -0.296875 -0.203125 c -0.007812 0.007813 -0.015625 0.011719 -0.023437 0.015625 c -1.578125 -1.371094 -3.285156 -2.023437 -5.105469 -2.070312 z m 69.386719 0.191406 c -0.648438 -0.011719 -1.324219 0.054688 -2.027344 0.191406 c -0.003906 -0.007812 -0.007812 -0.015625 -0.011719 -0.023437 l -0.375 0.027343 l -0.085937 0.351563 c 0.003906 0.003906 0.003906 0.007813 0.007812 0.011719 c -2.96875 8.460937 8.40625 10.808594 14.070313 12.078125 c -2.703125 -7.484375 -6.273438 -12.527344 -11.578125 -12.636719 z m -26.621094 4.609375 c -0.167969 0.007813 -0.335938 0.019531 -0.507812 0.039063 c -0.003907 -0.003907 -0.003907 -0.007813 -0.007813 -0.011719 l -0.21875 -0.003907 l -0.0625 0.199219 c 0 0.003907 0 0.007813 0.003906 0.007813 c -2.125 4.773437 4.367188 6.671875 7.597657 7.675781 c -1.304688 -4.792969 -3.316407 -8.003906 -6.804688 -7.90625 z m -18.53125 0.171875 l -0.203125 0.132812 c 0 0.007813 0 0.011719 0.003906 0.019532 c -3.867187 1.894531 -3.902343 6.300781 -2.152343 11.882812 c 2.449218 -2.910156 7.441406 -8.644531 2.539062 -11.875 c 0 -0.003906 -0.003906 -0.007812 -0.003906 -0.011718 z m 61.332031 1.953125 c -1.203125 -0.003906 -2.4375 0.269531 -3.703125 0.832031 c -0.007812 -0.007812 -0.011718 -0.015625 -0.019531 -0.023437 l -0.371094 0.113281 v 0.375 c 0 0.003906 0.003907 0.007812 0.007813 0.011719 c -1.042969 9.210937 10.960937 8.953125 16.960937 8.929687 c -3.976562 -6.179687 -8.191406 -10.230468 -12.875 -10.238281 z m -26.84375 1.40625 c -2.480469 -0.074219 -4.855469 0.675781 -7.105469 2.417969 c -0.011718 -0.007813 -0.019531 -0.015625 -0.03125 -0.023438 l -0.421874 0.25 l 0.109374 0.457032 c 0.003907 0.003906 0.011719 0.007812 0.015626 0.011718 c 1.46875 11.613282 16.121093 7.722656 23.480468 5.898438 c -5.644531 -5.371094 -11.054687 -8.855469 -16.046875 -9.011719 z m -56.527343 0.148437 c -5.769532 0.066407 -9.058594 8.628907 -10.921876 13.257813 c 9.007813 -1.683594 15.078126 -4.980469 14.855469 -11.71875 c 0.007813 -0.003906 0.019531 -0.003906 0.027344 -0.007813 l 0.035156 -0.386718 l -0.34375 -0.140625 c -0.003906 0.003906 -0.007812 0.003906 -0.011719 0.007812 c -1.3125 -0.714843 -2.523437 -1.027343 -3.640624 -1.011719 z m 26.933593 1.78125 l -0.136719 0.171876 v 0.007812 c -3.796874 3.855469 1.8125 8.0625 4.578126 10.210938 c 0.503906 -5.367188 -0.382813 -9.328126 -4.230469 -10.292969 c 0 -0.003907 0 -0.011719 0 -0.015625 z m -11.953125 0.492188 l -0.210937 0.109375 c -0.003907 0.003906 -0.003907 0.003906 -0.003907 0.007813 c -5.527343 2.164062 -1.792968 8.882812 0.015626 12.273437 c 2.902343 -5.148437 3.789062 -9.511719 0.367187 -12.199219 c 0.003906 -0.003906 0.003906 -0.011718 0.007813 -0.015625 z m 26.296875 2.289062 c -0.351562 0.011719 -0.714843 0.042969 -1.085937 0.082032 c -0.003906 -0.011719 -0.007813 -0.019532 -0.011719 -0.03125 l -0.46875 -0.007813 l -0.136719 0.429688 c 0 0.007812 0.003906 0.011719 0.007813 0.019531 c -4.546875 10.191406 9.320312 14.265625 16.21875 16.421875 c -2.773438 -10.246094 -7.066407 -17.109375 -14.523438 -16.914063 z m 0 0" fill-opacity="0.239216"/>
    <path d="m 24 5.613281 c 7.15625 4.984375 11.078125 10.21875 8 16 c -8.890625 0.9375 -8.230469 -10.375 -8 -16 z m 0 0" fill="url(#d)"/>
    <path d="m 26.023438 9.660156 c 1.574218 4.121094 2.253906 8.582032 5.6875 11.988282 l 0.347656 0.011718 l 0.117187 -0.339844 c -3.472656 -2.855468 -4.335937 -7.605468 -6.152343 -11.660156 z m 0 0" fill="#218959"/>
    <path d="m 8.976562 14.34375 c 8.71875 0.289062 14.855469 2.550781 15.417969 9.074219 c -6.949219 5.625 -12.550781 -4.226563 -15.417969 -9.074219 z m 0 0" fill="url(#f)"/>
    <path d="m 12.875 16.640625 c 3.5625 2.597656 6.5625 5.976563 11.292969 6.964844 l 0.300781 -0.179688 l -0.089844 -0.347656 c -4.464844 -0.507813 -7.773437 -4.023437 -11.503906 -6.4375 z m 0 0" fill="#2ec27e"/>
    <path d="m 8.972656 95.558594 c 6.65625 -5.636719 12.722656 -8.082032 17.519532 -3.621094 c -1.375 8.832031 -12.140626 5.289062 -17.519532 3.621094 z m 0 0" fill="#33d17a"/>
    <path d="m 13.40625 94.644531 c 4.382812 -0.464843 8.871094 0.027344 13.046875 -2.417969 l 0.097656 -0.332031 l -0.296875 -0.203125 c -3.652344 2.625 -8.460937 2.238282 -12.847656 2.953125 z m 0 0" fill="#2ec27e"/>
    <path d="m 9.636719 69.761719 c 8.714843 0.289062 14.851562 2.550781 15.414062 9.074219 c -6.949219 5.625 -12.550781 -4.226563 -15.414062 -9.074219 z m 0 0" fill="#33d17a"/>
    <path d="m 13.53125 72.0625 c 3.566406 2.597656 6.5625 5.972656 11.296875 6.960938 l 0.296875 -0.179688 l -0.085938 -0.347656 c -4.46875 -0.507813 -7.773437 -4.019532 -11.507812 -6.433594 z m 0 0" fill="#2ec27e"/>
    <path d="m 9.957031 46.898438 c 8.71875 0.289062 14.855469 2.550781 15.417969 9.074218 c -6.949219 5.625 -12.550781 -4.226562 -15.417969 -9.074218 z m 0 0" fill="#33d17a"/>
    <path d="m 13.855469 49.195312 c 3.5625 2.601563 6.558593 5.976563 11.292969 6.964844 l 0.296874 -0.179687 l -0.085937 -0.347657 c -4.46875 -0.507812 -7.773437 -4.019531 -11.503906 -6.4375 z m 0 0" fill="#2ec27e"/>
    <path d="m 10.554688 28.902344 c 8.714843 0.289062 14.851562 2.550781 15.414062 9.074218 c -6.949219 5.625 -12.546875 -4.226562 -15.414062 -9.074218 z m 0 0" fill="#33d17a"/>
    <path d="m 14.453125 31.199219 c 3.5625 2.601562 6.558594 5.976562 11.292969 6.964843 l 0.296875 -0.179687 l -0.085938 -0.347656 c -4.46875 -0.507813 -7.773437 -4.019531 -11.503906 -6.4375 z m 0 0" fill="#2ec27e"/>
    <path d="m 54.945312 44.957031 c -0.078124 4.757813 -1.257812 8.128907 -4.8125 8.492188 c -3.128906 -3.742188 2.195313 -6.882813 4.8125 -8.492188 z m 0 0" fill="#33d17a"/>
    <path d="m 53.726562 47.105469 c -1.386718 1.964843 -3.199218 3.632812 -3.699218 6.222656 l 0.101562 0.160156 l 0.1875 -0.050781 c 0.238282 -2.441406 2.125 -4.277344 3.410156 -6.332031 z m 0 0" fill="#2ec27e"/>
    <path d="m 70.511719 55.265625 c -4.488281 7.476563 -9.449219 11.742187 -15.421875 9.0625 c -1.539063 -8.804687 9.792968 -8.910156 15.421875 -9.0625 z m 0 0" fill="#33d17a"/>
    <path d="m 66.609375 57.558594 c -4.003906 1.847656 -8.410156 2.828125 -11.574219 6.484375 l 0.011719 0.34375 l 0.347656 0.097656 c 2.613281 -3.660156 7.292969 -4.839844 11.214844 -6.925781 z m 0 0" fill="#2ec27e"/>
    <path d="m 76.027344 87.054688 c -8.714844 0.304687 -14.992188 -1.53125 -15.996094 -8.003907 c 6.546875 -6.082031 12.808594 3.363281 15.996094 8.003907 z m 0 0" fill="url(#g)"/>
    <path d="m 71.984375 85.027344 c -3.734375 -2.351563 -6.953125 -5.511719 -11.742187 -6.179688 l -0.285157 0.199219 l 0.109375 0.34375 c 4.492188 0.203125 8.03125 3.480469 11.917969 5.636719 z m 0 0" fill="#2ec27e"/>
    <path d="m 70.226562 44.957031 c -4.207031 7.640625 -9.003906 12.085938 -15.074218 9.632813 c -1.863282 -8.742188 9.457031 -9.273438 15.074218 -9.632813 z m 0 0" fill="url(#i)"/>
    <path d="m 66.414062 47.394531 c -3.933593 1.996094 -8.300781 3.136719 -11.328124 6.910157 l 0.027343 0.347656 l 0.347657 0.078125 c 2.476562 -3.75 7.109374 -5.105469 10.953124 -7.335938 z m 0 0" fill="#26a269"/>
    <path d="m 16.675781 80.953125 c 5.476563 0.261719 9.316407 1.738281 9.609375 5.84375 c -4.417968 3.472656 -7.851562 -2.773437 -9.609375 -5.84375 z m 0 0" fill="url(#j)"/>
    <path d="m 19.105469 82.433594 c 2.214843 1.664062 4.070312 3.816406 7.039062 4.480468 l 0.1875 -0.109374 l -0.050781 -0.222657 c -2.804688 -0.359375 -4.851562 -2.597656 -7.175781 -4.148437 z m 0 0" fill="#2ec27e"/>
    <path d="m 41.480469 39.914062 c 2.929687 4.75 3.898437 8.824219 0.617187 11.429688 c -5.457031 -1.710938 -2.1875 -8.1875 -0.617187 -11.429688 z m 0 0" fill="url(#k)"/>
    <path d="m 41.632812 42.804688 c -0.125 2.820312 -0.863281 5.613281 0.285157 8.488281 l 0.203125 0.09375 l 0.15625 -0.167969 c -1.3125 -2.5625 -0.609375 -5.570312 -0.644532 -8.414062 z m 0 0" fill="#2ec27e"/>
    <path d="m 52.324219 37.5 c -0.730469 6.019531 -2.667969 10.136719 -7.222657 10.128906 c -3.472656 -5.152344 3.691407 -8.4375 7.222657 -10.128906 z m 0 0" fill="url(#l)"/>
    <path d="m 50.496094 40.0625 c -2.015625 2.308594 -4.539063 4.183594 -5.511719 7.402344 l 0.109375 0.214844 l 0.246094 -0.039063 c 0.621094 -3.0625 3.257812 -5.140625 5.15625 -7.578125 z m 0 0" fill="#2ec27e"/>
    <path d="m 98.152344 9.664062 c 5.949218 3.542969 9.351562 7.46875 7.242187 12.21875 c -6.988281 1.246094 -7.105469 -7.75 -7.242187 -12.21875 z m 0 0" fill="url(#m)"/>
    <path d="m 99.984375 12.753906 c 1.480469 3.175782 2.269531 6.671875 5.179687 9.171875 l 0.277344 -0.007812 l 0.074219 -0.277344 c -2.914063 -2.066406 -3.863281 -5.777344 -5.53125 -8.886719 z m 0 0" fill="#2ec27e"/>
    <path d="m 54.800781 24.160156 c -0.738281 8.3125 -3.222656 14.054688 -9.484375 14.246094 c -5.003906 -6.933594 4.703125 -11.765625 9.484375 -14.246094 z m 0 0" fill="url(#n)"/>
    <path d="m 52.398438 27.761719 c -2.671876 3.265625 -6.054688 5.953125 -7.25 10.421875 l 0.15625 0.292968 l 0.339843 -0.0625 c 0.71875 -4.242187 4.25 -7.214843 6.753907 -10.652343 z m 0 0" fill="#2ec27e"/>
    <path d="m 119.613281 14.035156 c -2.992187 7.144532 -6.804687 11.527344 -12.398437 9.933594 c -2.476563 -7.539062 7.46875 -9.082031 12.398437 -9.933594 z m 0 0" fill="url(#o)"/>
    <path d="m 116.476562 16.546875 c -3.28125 2.136719 -7.03125 3.558594 -9.34375 7.179687 l 0.054688 0.300782 l 0.316406 0.039062 c 1.832032 -3.550781 5.789063 -5.1875 8.972656 -7.519531 z m 0 0" fill="#2ec27e"/>
    <path d="m 109.238281 59.148438 c -5.023437 6.183593 -10.054687 9.40625 -15.113281 6.214843 c -0.261719 -8.160156 10.003906 -6.804687 15.113281 -6.214843 z m 0 0" fill="url(#p)"/>
    <path d="m 105.414062 60.71875 c -3.859374 1.15625 -7.96875 1.476562 -11.300781 4.378906 l -0.035156 0.3125 l 0.300781 0.132813 c 2.835938 -2.976563 7.21875 -3.441407 11.035156 -4.824219 z m 0 0" fill="#2ec27e"/>
    <path d="m 87.527344 78.355469 c -6.402344 3.835937 -11.867188 5.054687 -15.296875 0.625 c 2.390625 -7.265625 10.988281 -2.78125 15.296875 -0.625 z m 0 0" fill="url(#q)"/>
    <path d="m 83.65625 78.511719 c -3.765625 -0.214844 -7.488281 -1.253907 -11.351562 0.230469 l -0.128907 0.265624 l 0.222657 0.210938 c 3.449218 -1.707031 7.457031 -0.710938 11.257812 -0.707031 z m 0 0" fill="#218959"/>
    <path d="m 85.128906 67.136719 c -2.0625 5.078125 -4.726562 8.207031 -8.695312 7.121093 c -1.808594 -5.316406 5.214844 -6.480468 8.695312 -7.121093 z m 0 0" fill="url(#r)"/>
    <path d="m 82.929688 68.9375 c -2.308594 1.539062 -4.949219 2.574219 -6.558594 5.148438 l 0.039062 0.214843 l 0.226563 0.023438 c 1.269531 -2.523438 4.058593 -3.710938 6.292969 -5.386719 z m 0 0" fill="#218959"/>
    <path d="m 100.195312 69.382812 c -5.972656 5.570313 -11.539062 8.128907 -16.226562 4.171876 c 0.890625 -8.324219 11.121094 -5.492188 16.226562 -4.171876 z m 0 0" fill="url(#s)"/>
    <path d="m 96.089844 70.4375 c -4.082032 0.628906 -8.300782 0.375 -12.097656 2.847656 l -0.078126 0.316406 l 0.289063 0.171876 c 3.300781 -2.617188 7.816406 -2.472657 11.886719 -3.335938 z m 0 0" fill="#218959"/>
    <path d="m 94.234375 61.03125 c -4.570313 4.863281 -8.96875 7.246094 -13 4.273438 c 0.277344 -6.832032 8.765625 -5.074219 13 -4.273438 z m 0 0" fill="url(#t)"/>
    <path d="m 90.945312 62.109375 c -3.292968 0.734375 -6.746093 0.753906 -9.707031 2.972656 l -0.046875 0.261719 l 0.246094 0.128906 c 2.546875 -2.3125 6.234375 -2.4375 9.507812 -3.363281 z m 0 0" fill="#218959"/>
    <path d="m 18.847656 22.933594 c 7.554688 1.429687 12.597656 4.226562 12.203125 9.988281 c -6.8125 3.960937 -10.359375 -5.378906 -12.203125 -9.988281 z m 0 0" fill="url(#u)"/>
    <path d="m 21.933594 25.460938 c 2.753906 2.746093 4.90625 6.089843 8.898437 7.59375 l 0.28125 -0.117188 l -0.027343 -0.316406 c -3.824219 -1.046875 -6.230469 -4.550782 -9.152344 -7.160156 z m 0 0" fill="#218959"/>
    <path d="m 43.007812 106.644531 c -1.785156 -5.683593 -1.714843 -10.148437 2.363282 -11.988281 c 5.195312 3.207031 0.113281 9.046875 -2.363282 11.988281 z m 0 0" fill="url(#v)"/>
    <path d="m 43.605469 103.613281 c 0.871093 -2.882812 2.371093 -5.578125 1.9375 -8.855469 l -0.183594 -0.148437 l -0.203125 0.132813 c 0.679688 2.996093 -0.835938 5.921874 -1.550781 8.871093 z m 0 0" fill="#218959"/>
    <path d="m 17.949219 40.511719 c 2.769531 5.761719 6.105469 9.210937 10.648437 7.660156 c 1.714844 -6.328125 -6.550781 -7.167969 -10.648437 -7.660156 z m 0 0" fill="url(#w)"/>
    <path d="m 20.640625 42.449219 c 2.800781 1.621093 5.949219 2.632812 8.015625 5.515625 l -0.03125 0.253906 l -0.261719 0.042969 c -1.660156 -2.847657 -4.996093 -4.023438 -7.722656 -5.8125 z m 0 0" fill="#26a269"/>
    <path d="m 39.96875 21.96875 c -4.835938 6.515625 -6.742188 12.296875 -2.3125 16.480469 c 8.117188 -1.804688 4.183594 -11.589844 2.3125 -16.480469 z m 0 0" fill="url(#x)"/>
    <path d="m 39.386719 26.136719 c -0.171875 4.097656 0.554687 8.238281 -1.464844 12.257812 l -0.304687 0.113281 l -0.203126 -0.265624 c 2.21875 -3.546876 1.570313 -7.988282 1.972657 -12.105469 z m 0 0" fill="#26a269"/>
    <path d="m 66.949219 20.523438 c -5.660157 1.558593 -9.324219 4.003906 -8.667969 8.363281 c 5.433594 2.589843 7.550781 -4.738281 8.667969 -8.363281 z m 0 0" fill="url(#y)"/>
    <path d="m 64.757812 22.640625 c -1.925781 2.261719 -3.355468 4.941406 -6.300781 6.332031 l -0.222656 -0.070312 l 0.003906 -0.242188 c 2.84375 -1.035156 4.457031 -3.855468 6.519531 -6.019531 z m 0 0" fill="#26a269"/>
    <path d="m 34.070312 32.554688 c 2.996094 6.484374 3.601563 11.808593 -0.964843 14.621093 c -6.671875 -3.011719 -1.527344 -10.738281 0.964843 -14.621093 z m 0 0" fill="url(#z)"/>
    <path d="m 33.824219 36.253906 c -0.589844 3.5625 -1.957031 7 -0.941407 10.828125 l 0.242188 0.152344 l 0.222656 -0.191406 c -1.273437 -3.457031 0.082032 -7.171875 0.476563 -10.789063 z m 0 0" fill="#26a269"/>
    <path d="m 79.503906 56.085938 c -5.28125 3.863281 -8.132812 7.859374 -5.722656 12.144531 c 6.6875 0.546875 5.996094 -7.929688 5.722656 -12.144531 z m 0 0" fill="url(#A)"/>
    <path d="m 78.058594 59.15625 c -1.109375 3.121094 -1.542969 6.480469 -4.058594 9.09375 l -0.257812 0.015625 l -0.09375 -0.253906 c 2.554687 -2.203125 3.117187 -5.777344 4.410156 -8.855469 z m 0 0" fill="#26a269"/>
    <path d="m 85.800781 97.453125 c -2.222656 -5.675781 -5.144531 -9.191406 -9.574219 -8.039063 c -2.082031 5.886719 5.714844 7.28125 9.574219 8.039063 z m 0 0" fill="url(#B)"/>
    <path d="m 83.378906 95.417969 c -2.542968 -1.738281 -5.464844 -2.925781 -7.222656 -5.8125 l 0.046875 -0.238281 l 0.25 -0.023438 c 1.378906 2.824219 4.464844 4.183594 6.925781 6.074219 z m 0 0" fill="#26a269"/>
    <path d="m 7.363281 86.019531 c 4.847657 3.320313 9.085938 4.542969 11.996094 1.222657 c -1.53125 -5.828126 -8.503906 -2.710938 -11.996094 -1.222657 z m 0 0" fill="url(#C)"/>
    <path d="m 10.398438 86.328125 c 2.972656 0.007813 5.945312 -0.628906 8.914062 0.722656 l 0.089844 0.214844 l -0.1875 0.15625 c -2.628906 -1.507813 -5.828125 -0.917969 -8.816406 -1.09375 z m 0 0" fill="#26a269"/>
    <path d="m 14.40625 64.5625 c 5.953125 1.523438 10.546875 1.199219 12.210938 -3.101562 c -3.589844 -5.167969 -9.316407 0.390624 -12.210938 3.101562 z m 0 0" fill="url(#D)"/>
    <path d="m 17.496094 63.777344 c 2.921875 -1.054688 5.613281 -2.75 9.007812 -2.488282 l 0.164063 0.183594 l -0.125 0.21875 c -3.121094 -0.539062 -6.050781 1.1875 -9.046875 2.085938 z m 0 0" fill="#26a269"/>
    <path d="m 79.269531 22.261719 c -6.199219 -1.425781 -10.949219 -0.980469 -12.5625 3.515625 c 3.84375 5.261718 9.636719 -0.636719 12.5625 -3.515625 z m 0 0" fill="url(#E)"/>
    <path d="m 76.09375 23.152344 c -3 1.164062 -5.742188 2.984375 -9.265625 2.796875 l -0.175781 -0.183594 l 0.125 -0.226563 c 3.246094 0.476563 6.234375 -1.382812 9.316406 -2.386718 z m 0 0" fill="#26a269"/>
    <path d="m 111.085938 5.886719 c -4.160157 3.835937 -6.21875 7.546875 -3.734376 10.992187 c 5.796876 -0.179687 4.378907 -7.394531 3.734376 -10.992187 z m 0 0" fill="url(#F)"/>
    <path d="m 110.144531 8.667969 c -0.652343 2.785156 -0.695312 5.714843 -2.601562 8.207031 l -0.222657 0.039062 l -0.105468 -0.210937 c 1.980468 -2.140625 2.117187 -5.269531 2.929687 -8.035156 z m 0 0" fill="#26a269"/>
    <path d="m 56.574219 10.75 c -8.507813 0.683594 -14.402344 3.179688 -14.648438 9.582031 c 7.050781 5.171875 12.070313 -4.710937 14.648438 -9.582031 z m 0 0" fill="url(#G)"/>
    <path d="m 52.871094 13.175781 c -3.363282 2.703125 -6.136719 6.140625 -10.71875 7.328125 l -0.296875 -0.164062 l 0.066406 -0.34375 c 4.34375 -0.703125 7.414063 -4.289063 10.949219 -6.820313 z m 0 0" fill="#26a269"/>
    <path d="m 88.882812 13.097656 c -7.402343 -1.277344 -12.972656 -0.441406 -14.585937 4.964844 c 4.878906 5.953125 11.320313 -1.378906 14.585937 -4.964844 z m 0 0" fill="url(#H)"/>
    <path d="m 85.191406 14.355469 c -3.457031 1.570312 -6.570312 3.894531 -10.738281 3.902343 l -0.21875 -0.203124 l 0.132813 -0.277344 c 3.859374 0.351562 7.257812 -2.035156 10.824218 -3.421875 z m 0 0" fill="#26a269"/>
    <path d="m 66.765625 10.109375 c -5.375 2.59375 -8.589844 5.707031 -7.136719 9.945313 c 5.90625 1.597656 6.683594 -6.117188 7.136719 -9.945313 z m 0 0" fill="url(#I)"/>
    <path d="m 64.960938 12.625 c -1.507813 2.613281 -2.453126 5.554688 -5.140626 7.488281 l -0.234374 -0.03125 l -0.042969 -0.242187 c 2.65625 -1.554688 3.753906 -4.667969 5.417969 -7.214844 z m 0 0" fill="#26a269"/>
    <path d="m 85.945312 90.410156 c -1.726562 -4.960937 -4.125 -8.085937 -7.976562 -7.242187 c -1.992188 5.003906 4.675781 6.460937 7.976562 7.242187 z m 0 0" fill="url(#J)"/>
    <path d="m 83.925781 88.578125 c -2.132812 -1.582031 -4.609375 -2.703125 -6.027343 -5.246094 l 0.050781 -0.203125 l 0.21875 -0.011718 c 1.089843 2.476562 3.703125 3.75 5.757812 5.460937 z m 0 0" fill="#26a269"/>
    <path d="m 70.691406 102.34375 c -1.390625 -5.113281 -3.585937 -8.421875 -7.519531 -7.839844 c -2.351563 4.894532 4.253906 6.824219 7.519531 7.839844 z m 0 0" fill="url(#K)"/>
    <path d="m 68.789062 100.359375 c -2.035156 -1.742187 -4.449218 -3.039063 -5.699218 -5.699219 l 0.066406 -0.199218 h 0.21875 c 0.925781 2.570312 3.464844 4.03125 5.414062 5.898437 z m 0 0" fill="#26a269"/>
    <path d="m 54.695312 110.289062 c 0.511719 -5.464843 -0.414062 -9.476562 -4.445312 -10.347656 c -4.0625 3.894532 1.644531 8.175782 4.445312 10.347656 z m 0 0" fill="url(#L)"/>
    <path d="m 53.570312 107.671875 c -1.339843 -2.429687 -3.210937 -4.570313 -3.453124 -7.605469 l 0.132812 -0.167968 l 0.214844 0.078124 c -0.039063 2.832032 1.890625 5.175782 3.105468 7.695313 z m 0 0" fill="#26a269"/>
    <path d="m 111.859375 77.671875 c -6.402344 -1.5 -11.316406 -1.058594 -13.003906 3.582031 c 3.957031 5.457032 9.964843 -0.617187 13.003906 -3.582031 z m 0 0" fill="url(#M)"/>
    <path d="m 108.570312 78.578125 c -3.101562 1.195313 -5.949218 3.0625 -9.589843 2.855469 l -0.179688 -0.1875 l 0.132813 -0.238282 c 3.351562 0.507813 6.445312 -1.402343 9.636718 -2.429687 z m 0 0" fill="#26a269"/>
    <path d="m 102.089844 102.464844 c -3.089844 -8.554688 -7.308594 -13.914063 -13.964844 -12.375 c -3.339844 8.703125 8.234375 11.089844 13.964844 12.375 z m 0 0" fill="url(#N)"/>
    <path d="m 98.558594 99.335938 c -3.726563 -2.695313 -8.039063 -4.585938 -10.546875 -8.960938 l 0.082031 -0.355469 l 0.375 -0.023437 c 1.941406 4.269531 6.492188 6.417968 10.089844 9.339844 z m 0 0" fill="#26a269"/>
    <path d="m 114.042969 94.121094 c -5.085938 -7.90625 -10.570313 -12.335938 -16.921875 -9.25 c -1.359375 9.539062 10.851562 9.277344 16.921875 9.25 z m 0 0" fill="url(#O)"/>
    <path d="m 109.761719 91.785156 c -4.375 -1.859375 -9.15625 -2.769531 -12.6875 -6.601562 v -0.375 l 0.371093 -0.113282 c 2.941407 3.855469 8.019532 4.972657 12.316407 7.089844 z m 0 0" fill="#26a269"/>
    <path d="m 96.0625 88.722656 c -3.660156 -4.667968 -7.363281 -7.128906 -11.171875 -4.820312 c -0.296875 6.070312 7.359375 5.191406 11.171875 4.820312 z m 0 0" fill="url(#P)"/>
    <path d="m 93.234375 87.503906 c -2.855469 -0.910156 -5.910156 -1.203125 -8.355469 -3.402344 l -0.019531 -0.238281 l 0.226563 -0.089843 c 2.070312 2.25 5.328124 2.652343 8.148437 3.730468 z m 0 0" fill="#26a269"/>
    <path d="m 74.292969 95.449219 c -3.003907 -5.9375 -6.542969 -9.457031 -11.238281 -7.746094 c -1.652344 6.613281 6.964843 7.320313 11.238281 7.746094 z m 0 0" fill="url(#Q)"/>
    <path d="m 71.449219 93.492188 c -2.941407 -1.628907 -6.242188 -2.617188 -8.449219 -5.574219 l 0.027344 -0.261719 l 0.269531 -0.054688 c 1.789063 2.929688 5.28125 4.085938 8.152344 5.890626 z m 0 0" fill="#26a269"/>
    <path d="m 119.882812 66.867188 c -10.128906 -1.980469 -17.808593 -1 -20.1875 6.375 c 6.519532 8.332031 15.59375 -1.546876 20.1875 -6.375 z m 0 0" fill="url(#R)"/>
    <path d="m 114.777344 68.480469 c -4.796875 2.054687 -9.152344 5.152343 -14.875 5.039062 l -0.296875 -0.289062 l 0.195312 -0.378907 c 5.285157 0.601563 10.03125 -2.574218 14.976563 -4.371093 z m 0 0" fill="#26a269"/>
    <path d="m 38.101562 112.78125 c 2.953126 -5.246094 3.824219 -9.675781 0.175782 -12.347656 c -5.804688 2.082031 -2.007813 8.917968 -0.175782 12.347656 z m 0 0" fill="url(#S)"/>
    <path d="m 38.144531 109.65625 c -0.253906 -3.03125 -1.171875 -6.011719 -0.054687 -9.15625 l 0.210937 -0.109375 l 0.175781 0.175781 c -1.304687 2.816406 -0.417968 6.023438 -0.332031 9.089844 z m 0 0" fill="#26a269"/>
    <path d="m 61.078125 104.128906 c -0.820313 -9.609375 -3.671875 -16.253906 -10.90625 -16.5 c -5.808594 7.996094 5.390625 13.613282 10.90625 16.5 z m 0 0" fill="url(#T)"/>
    <path d="m 58.320312 99.957031 c -3.078124 -3.785156 -6.976562 -6.898437 -8.34375 -12.070312 l 0.183594 -0.335938 l 0.390625 0.074219 c 0.816407 4.902344 4.886719 8.351562 7.769531 12.332031 z m 0 0" fill="#26a269"/>
    <path d="m 12.398438 111.375 c 9.175781 -1.714844 15.300781 -5.097656 14.839843 -12.09375 c -8.257812 -4.824219 -12.589843 6.503906 -14.839843 12.09375 z m 0 0" fill="url(#U)"/>
    <path d="m 16.152344 108.3125 c 3.347656 -3.324219 5.972656 -7.378906 10.820312 -9.191406 l 0.34375 0.140625 l -0.035156 0.382812 c -4.644531 1.261719 -7.574219 5.511719 -11.128906 8.667969 z m 0 0" fill="#26a269"/>
    <path d="m 100.707031 76.957031 c -6.226562 -0.800781 -10.847656 0.097657 -12 4.667969 c 4.289063 4.796875 9.40625 -1.558594 12 -4.667969 z m 0 0" fill="url(#V)"/>
    <path d="m 97.671875 78.136719 c -2.828125 1.4375 -5.347656 3.488281 -8.828125 3.648437 l -0.191406 -0.164062 l 0.101562 -0.238282 c 3.234375 0.15625 5.988282 -1.960937 8.917969 -3.246093 z m 0 0" fill="#26a269"/>
    <path d="m 60.636719 94.019531 c 1.582031 -6.417969 1.199219 -11.359375 -3.445313 -13.113281 c -5.53125 3.910156 0.5 10.023438 3.445313 13.113281 z m 0 0" fill="url(#W)"/>
    <path d="m 59.761719 90.703125 c -1.160157 -3.132813 -3.003907 -6.015625 -2.753907 -9.671875 l 0.195313 -0.179688 l 0.234375 0.136719 c -0.550781 3.363281 1.332031 6.496094 2.324219 9.714844 z m 0 0" fill="#26a269"/>
    <path d="m 100.320312 56.265625 c -4.175781 -0.765625 -7.328124 -0.324219 -8.269531 2.71875 c 2.722657 3.394531 6.40625 -0.710937 8.269531 -2.71875 z m 0 0" fill="url(#X)"/>
    <path d="m 98.230469 56.957031 c -1.964844 0.867188 -3.738281 2.160157 -6.09375 2.140625 l -0.121094 -0.117187 l 0.074219 -0.15625 c 2.179687 0.222656 4.113281 -1.105469 6.140625 -1.867188 z m 0 0" fill="#26a269"/>
    <path d="m 95.890625 106.980469 c -8.597656 -8.1875 -16.652344 -11.988281 -23.523437 -6.304688 c 1.171874 12.113281 16.082031 8.148438 23.523437 6.304688 z m 0 0" fill="url(#Y)"/>
    <path d="m 89.941406 105.386719 c -5.925781 -0.976563 -12.0625 -0.664063 -17.542968 -4.316407 l -0.109376 -0.457031 l 0.421876 -0.25 c 4.757812 3.851563 11.324218 3.707031 17.230468 5.023438 z m 0 0" fill="#26a269"/>
    <path d="m 79.121094 119.589844 c -2.960938 -10.925782 -7.644532 -18.007813 -16.058594 -16.777344 c -5.035156 10.457031 9.082031 14.601562 16.058594 16.777344 z m 0 0" fill="url(#Z)"/>
    <path d="m 75.058594 115.351562 c -4.347656 -3.730468 -9.503906 -6.511718 -12.164063 -12.199218 l 0.136719 -0.429688 l 0.46875 0.007813 c 1.96875 5.492187 7.394531 8.625 11.558594 12.621093 z m 0 0" fill="#26a269"/>
    <path d="m 75.335938 68.996094 c -7.320313 -0.871094 -12.738282 0.234375 -14.039063 5.613281 c 5.085937 5.585937 11.023437 -1.929687 14.039063 -5.613281 z m 0 0" fill="url(#aa)"/>
    <path d="m 71.785156 70.417969 c -3.308594 1.714843 -6.242187 4.152343 -10.324218 4.375 l -0.226563 -0.1875 l 0.117187 -0.28125 c 3.796876 0.148437 7.007813 -2.367188 10.433594 -3.90625 z m 0 0" fill="#26a269"/>
    <path d="m 119.566406 106.800781 c -5.085937 -7.90625 -10.574218 -12.339843 -16.921875 -9.25 c -1.363281 9.535157 10.851563 9.273438 16.921875 9.25 z m 0 0" fill="url(#ab)"/>
    <path d="m 115.285156 104.460938 c -4.375 -1.859376 -9.15625 -2.765626 -12.691406 -6.601563 l 0.003906 -0.375 l 0.371094 -0.113281 c 2.9375 3.855468 8.019531 4.972656 12.316406 7.089844 z m 0 0" fill="#238d5d"/>
</svg>
